# xmcd
#
# Track frame offsets:
#	150
#	12485
#	17947
#	30231
#	33006
#	42941
#	57519
#	61739
#	65639
#	73701
#	80889
#	96143
#	107072
#	138622
#	149577
#	163613
#	171272
#
# Disc length: 2534 seconds
#
# Revision: 0
# Processed by: cddbd v1.5.2PL0 Copyright (c) Steve Scherf et al.
# Submitted via: EasyCDDAExtractor 16.0.6.1
#
DISCID=f209e411
DTITLE=Συλλογικός δίσκος - Μνήμη γενοκτονίας
DYEAR=1900
DGENRE=Ποικίλη
TTITLE0=Αναστασιάδου Α.-Πιπερίδου Ε. Αλ. - Τιμή-τιμή τον αϊτόν [παραδ. παιχνίδ
TTITLE0=ι]
TTITLE1=Δανιηλίδου Π. - Αροθυμία [ποίημα Κώστα Διαμαντίδη]
TTITLE2=Αμαραντίδης Γ. - Άϊτενς επαραπέταμεν [παραδοσιακό]
TTITLE3=Σοφιανίδης Κ. - Υπομονήν [παραδ. ποίημα]
TTITLE4=Ορχηστρικά - Τιζ [παραδ. χορός]
TTITLE5=Σινδοπούλου Σ. - Πατρίδας νοσταλγία [ποίημα Σίμου Λιανίδη]
TTITLE6=Πιπερίδου Λεων. Ε. - Μάνα [ποίημα Ηλία Τσιρκινίδη]
TTITLE7=Κυτίδου Ε. - Έρθα πουλί μ' σο σπιτόπο σ'
TTITLE8=Ματσκαλίδου Μ. - Μαυροξενιτέας [ποίημα Φίλωνα Κτενίδη]
TTITLE9=Σαμανίδου Ε. - Την πατρίδα μ' έχασα [παραδ. τραγούδι, στ. Χρ. Αντωνιάδ
TTITLE9=η]
TTITLE10=Συμηνίδου Γ. - Αροθυμαγμέντσα γραία [ποίημα Παντελή Μελανοφρύδη]
TTITLE11=Καρασαββίδης Δ. - Εκάεν και το Τσάμπασιν [παραδ. τραγούδι, κρουστά ιδ
TTITLE11=ίου]
TTITLE12=Γεωργιάδου Ι.-Χίλης Γ.-Αμαραντίδης Γ. - Ο Δήμον ο κεμεντζετζής [ποίημ
TTITLE12=α Ηλία Τσιρκινίδη]-Όλον τον κόσμο θα κουρτώ [παραδ.]
TTITLE13=Πιπερίδης Χαρ.-Γεωργιάδης Γ. - Να 'σάν τη μάνναν που γεννά[δημώδης ακ
TTITLE13=ριτ. ποίηση]-Σα ραχία τηςΣαμψούντας [παρ.]
TTITLE14=Σινδοπούλου Σ. - Ο ήλιον πάει σην μάναν ατ' [παραδ. τραγούδι]
TTITLE15=Πιπερίδου Λεων. Ε. - Πάρθεν η Ρωμανία [ο θρήνος της πόλης]
TTITLE16=Πιπερίδης Π. - Ατσαπάτ, σέρρα [πυρρίχειος]
EXTD=
EXTT0=
EXTT1=
EXTT2=
EXTT3=
EXTT4=
EXTT5=
EXTT6=
EXTT7=
EXTT8=
EXTT9=
EXTT10=
EXTT11=
EXTT12=
EXTT13=
EXTT14=
EXTT15=
EXTT16=
PLAYORDER=
